<svg width="158" height="269" viewBox="0 0 158 269" fill="none" xmlns="http://www.w3.org/2000/svg">
<path d="M157.35 94.2001C157.35 183.733 -20.8252 94.2001 -20.8252 94.2001C-20.8252 94.2001 157.35 4.66726 157.35 94.2001Z" fill="#E55733"/>
<path d="M-109.912 248.504C-32.3746 293.27 -20.825 94.2 -20.825 94.2C-20.825 94.2 -187.45 203.737 -109.912 248.504Z" fill="#E55733"/>
<path d="M68.2622 -60.1038C145.8 -15.3374 -20.8252 94.2 -20.8252 94.2C-20.8252 94.2 -9.27548 -104.87 68.2622 -60.1038Z" fill="#E55733"/>
<path d="M68.2619 248.504C-9.27576 293.27 -20.8254 94.2 -20.8254 94.2C-20.8254 94.2 145.8 203.737 68.2619 248.504Z" fill="#E55733"/>
<path d="M-109.913 -60.1038C-187.451 -15.3374 -20.8255 94.2 -20.8255 94.2C-20.8255 94.2 -32.3752 -104.87 -109.913 -60.1038Z" fill="#E55733"/>
</svg>
