<svg width="347" height="84" viewBox="0 0 347 84" fill="none" xmlns="http://www.w3.org/2000/svg">
<g filter="url(#filter0_d_121606_135)">
<path fill-rule="evenodd" clip-rule="evenodd" d="M37.2026 43.6901C37.154 48.1194 37.2106 52.5259 37.2192 56.8257C37.2296 61.7931 36.5489 69.0121 42.263 72.4928C48.1197 76.0605 55.952 75.7509 63.058 76.2175C103.678 78.8835 145.914 75.4192 186.794 76.1322C203.743 76.4279 220.739 76.0178 237.64 76.3533C256.314 76.7239 279.978 76.942 297.607 76.8865C305.303 76.8624 326.144 76.8791 332.552 73.3165C337.891 70.3488 336.31 64.2799 336.021 58.5441C335.297 44.1761 334.837 29.8651 334.714 15.5165C334.576 -0.757858 301.482 3.2792 286.481 3.31632C282.202 3.32694 277.953 3.42133 273.68 3.52683C219.728 4.85859 165.545 2.99482 111.542 3.56985C96.7469 3.72745 81.8794 2.95066 67.0903 3.58686C60.6282 3.86486 53.1545 3.91151 47.6299 6.73602C41.6463 9.79549 40.3775 15.3337 39.3214 20.2827C38.7752 22.8421 38.2932 24.9198 37.9516 28.0758L2.64786 28.3379C2.64786 28.3379 34.5785 43.06 37.2026 43.6901Z" fill="white"/>
<path fill-rule="evenodd" clip-rule="evenodd" d="M37.2026 43.6901C37.154 48.1194 37.2106 52.5259 37.2192 56.8257C37.2296 61.7931 36.5489 69.0121 42.263 72.4928C48.1197 76.0605 55.952 75.7509 63.058 76.2175C103.678 78.8835 145.914 75.4192 186.794 76.1322C203.743 76.4279 220.739 76.0178 237.64 76.3533C256.314 76.7239 279.978 76.942 297.607 76.8865C305.303 76.8624 326.144 76.8791 332.552 73.3165C337.891 70.3488 336.31 64.2799 336.021 58.5441C335.297 44.1761 334.837 29.8651 334.714 15.5165C334.576 -0.757858 301.482 3.2792 286.481 3.31632C282.202 3.32694 277.953 3.42133 273.68 3.52683C219.728 4.85859 165.545 2.99482 111.542 3.56985C96.7469 3.72745 81.8794 2.95066 67.0903 3.58686C60.6282 3.86486 53.1545 3.91151 47.6299 6.73602C41.6463 9.79549 40.3775 15.3337 39.3214 20.2827C38.7752 22.8421 38.2932 24.9198 37.9516 28.0758L2.64786 28.3379C2.64786 28.3379 34.5785 43.06 37.2026 43.6901Z" stroke="black" stroke-width="4.93587" stroke-miterlimit="1.5" stroke-linecap="round" stroke-linejoin="round"/>
</g>
<defs>
<filter id="filter0_d_121606_135" x="0.179688" y="0.380859" width="346.751" height="83.3289" filterUnits="userSpaceOnUse" color-interpolation-filters="sRGB">
<feFlood flood-opacity="0" result="BackgroundImageFix"/>
<feColorMatrix in="SourceAlpha" type="matrix" values="0 0 0 0 0 0 0 0 0 0 0 0 0 0 0 0 0 0 127 0" result="hardAlpha"/>
<feOffset dx="8" dy="4"/>
<feComposite in2="hardAlpha" operator="out"/>
<feColorMatrix type="matrix" values="0 0 0 0 0 0 0 0 0 0 0 0 0 0 0 0 0 0 1 0"/>
<feBlend mode="normal" in2="BackgroundImageFix" result="effect1_dropShadow_121606_135"/>
<feBlend mode="normal" in="SourceGraphic" in2="effect1_dropShadow_121606_135" result="shape"/>
</filter>
</defs>
</svg>
