<svg width="117" height="117" viewBox="0 0 117 117" fill="none" xmlns="http://www.w3.org/2000/svg">
<path d="M111.671 49.7545C113.851 49.7545 117.39 51.4664 116.35 57.3164C116.04 59.056 116.227 59.7135 115.527 61.5135C115.155 62.4707 114.735 63.4273 114.224 64.3462C113.719 65.2549 113.172 66.144 112.545 66.9717C110.802 69.295 108.588 71.4739 106.112 73.4703C102.72 76.2047 98.8963 78.6433 95.3227 80.6456C87.0091 85.972 78.4478 89.9183 69.4272 92.5245C60.4749 95.1109 51.0811 96.3303 41.0937 96.4187C36.5721 96.3787 31.6921 96.2499 27.0344 95.4672C23.6466 94.8981 20.3736 93.9852 17.4 92.5682C14.5178 91.1939 11.9857 89.4007 9.73065 87.3399C6.43957 84.3325 3.7433 80.7546 1.38251 77.1646C0.181602 75.3455 -0.0458138 69.2814 1.77343 68.0804C3.59251 66.8795 6.04441 67.3814 7.24532 69.2006C8.94418 71.7642 10.826 74.3342 13.051 76.6055C15.0631 78.6591 17.3619 80.4665 20.0888 81.755C22.4127 82.8538 24.9781 83.5272 27.6228 83.9664C31.8669 84.6712 36.313 84.7649 40.4318 84.7978C49.7157 85.0363 58.4669 84.1379 66.8872 82.0952C75.4362 80.0214 83.6511 76.808 91.6888 72.2293C94.8435 70.1762 98.2373 67.7493 101.152 65.0048C103.029 63.2371 104.66 61.3139 105.903 59.3142C106.68 57.1455 107.299 55.1005 107.783 52.9032C108.371 50.2421 110.5 49.7545 111.671 49.7545Z" fill="#2E3120"/>
<path fill-rule="evenodd" clip-rule="evenodd" d="M81.6656 22.6158C83.988 23.6077 83.8398 28.2213 84.0526 30.349C84.7164 36.9879 85.2148 45.0116 83.0173 51.4025C82.1841 53.8253 79.4948 59.3664 75.976 58.3847C73.905 57.807 72.8073 53.9993 72.276 52.2626C70.185 45.4277 72.2955 38.9897 72.6339 31.961C72.9065 26.3023 75.148 19.8319 81.6656 22.6158Z" fill="#2E3120"/>
<path fill-rule="evenodd" clip-rule="evenodd" d="M35.3157 22.6158C32.9933 23.6077 33.1414 28.2213 32.9286 30.349C32.2648 36.9879 31.7664 45.0116 33.9639 51.4025C34.7971 53.8253 37.4864 59.3664 41.0052 58.3847C43.0762 57.807 44.1739 53.9993 44.7052 52.2626C46.7962 45.4277 44.6857 38.9897 44.3473 31.961C44.0747 26.3023 41.8332 19.8319 35.3157 22.6158Z" fill="#2E3120"/>
</svg>
