<svg width="340" height="81" viewBox="0 0 340 81" fill="none" xmlns="http://www.w3.org/2000/svg">
<path fill-rule="evenodd" clip-rule="evenodd" d="M37.6325 44.164C37.5839 48.5933 37.6405 52.9997 37.6492 57.2996C37.6595 62.267 36.9788 69.4859 42.693 72.9667C48.5496 76.5344 56.3819 76.2248 63.4879 76.6914C104.108 79.3574 146.344 75.8931 187.224 76.606C204.173 76.9018 221.169 76.4916 238.07 76.8271C256.744 77.1978 280.408 77.4158 298.037 77.3604C305.733 77.3362 326.574 77.353 332.982 73.7904C338.32 70.8227 336.74 64.7538 336.451 59.018C335.727 44.65 335.267 30.3389 335.144 15.9903C335.005 -0.283981 301.912 3.75308 286.911 3.79019C282.632 3.80081 278.383 3.89521 274.109 4.00071C220.158 5.33246 165.975 3.4687 111.972 4.04373C97.1769 4.20132 82.3093 3.42454 67.5202 4.06073C61.0581 4.33874 53.5845 4.38539 48.0598 7.2099C42.0762 10.2694 40.8074 15.8076 39.7513 20.7565C39.2051 23.3159 38.7231 25.3937 38.3815 28.5497L3.0778 28.8118C3.0778 28.8118 35.0085 43.5339 37.6325 44.164Z" fill="white" stroke="black" stroke-width="4.93587" stroke-miterlimit="1.5" stroke-linecap="round" stroke-linejoin="round"/>
</svg>
